/* XPM */
static char *dummy[]={
"80 80 11 1",
". c #00ffff",
"b c #cc9900",
"# c #cccc00",
"e c #cccc33",
"f c #ff9900",
"i c #ff9933",
"a c #ffcc00",
"c c #ffcc33",
"g c #ffcc66",
"d c #ffff66",
"h c #ffff99",
"................................................................................",
"................................................................................",
".......................................#........................................",
".......................................a........................................",
"......................................ba........................................",
"......................................aa#.......................................",
"......................................aaa.......................................",
".....................................aaaa.......................................",
".....................................aaaaa......................................",
".....................................aaaab......................................",
"....................................aaaaaa......................................",
"....................................aaaaaaa.....................................",
"....................................aaaaaaa.....................................",
"...................................aaaaaaaa.....................................",
"...................................aaaaaaaab....................................",
"...................................aaaaaaacc....................................",
"..................................#aaaaaaccc....................................",
"..................................aaaaaaaaca....................................",
"..................................aaaaaaaaccc...................................",
".................................#aaaaaaacccc...................................",
".................................aaaaaaaacccc...................................",
".................................aaaaaaacccccc..................................",
"................................#aaaaaaaaccccc..................................",
"................................aaaaaaaaaccccc..................................",
"................................aaaaaaaaaaccccc.................................",
"...............................aaaaaaaaaaaccccc.................................",
"...............................aaaaaaaaaaaccccd.................................",
"...............................aaaaaaaaaaaacccce................................",
"...baaaafaafaaaffaaaaafaafffaaaaaaaaaaaaaaaacccccgccbcaaaaaaaabaaaaaaaaaaa#.....",
"....aaaafaaaaaaaaaaaaaaaaaaaaaaaaaaaaaaaaaaccccccccccccaaaaaaaaaaaaaaaaaaa......",
"......faaaaaaaaaaaaaaaaaaaaaaaaaaaaaaaaaaaaccccccccccccaaaaaaaaaaaaaaaaaa.......",
".......faaaaaaaaaaaaaaaaaaaaaaaaaaaaaaaaaaaaccccccgccccaaaaaaaaaaaaaaaab........",
"........baaaaaaaaaaaaaaaaaaaaaaaaaacaaaaaaaacccccccccccaaaaaaaaaaaaaaa..........",
"..........aaaaaaaaaaaaaaaaaaaaaaaaacaaaaaaaccccgcccccaaaaaaaaaaaaaaaa...........",
"...........faaaaafaaafaaaaaaaaaaaaaaaaaaaaaacccccccaaccaaaaaaaaaaaa.............",
".............afaaaaaaaaaaaaaaaaaaccaaaaaaacccccccaaaaaaaafaaaaaaa#..............",
"..............bfaaaaaaafaaaaaafaaccaaaaaacgccgggcaaaaaaaaaaaaaaaa...............",
"...............baaaaaaaaaafaaafacccccaaacgggggggccaaaaaaaaaaaaf.................",
".................aaafaaaaaaaafaaaaccaaaacgggcgggccaaaaaaaaaaa#..................",
"..................baaafaaaaaaaaaaaaaaaaacgggcggggcaaaaaaaaaa....................",
"....................aaaaaaaaaaaaaaaaaaaagggggdgggcaaaaaaaaa.....................",
".....................faaaafaaaaaaaaaaaaacgggdhgggcaaaaaaab......................",
"......................baaaaaaaaaaaaaaaaaccgggggggcaaaaaf........................",
"........................aaaaaaaaaaaaaaaacccggggccaaaaab.........................",
".........................aaafaaaaaaaaaaaaccccgcccaaaab..........................",
".........................afaaaaaaaaaaaaaaaaaccaaaaaaab..........................",
".........................aaafaaaaaaaaaaaafaaaaaaaaaaaa..........................",
"........................baaaaaaffaaaaaaaaaaaaaaaaaaaaa..........................",
"........................aaaaaaafaaaaaccaaaaaaafafaaaaab.........................",
"........................affaaaaaaaaacffaaaaffaaffaffaaa.........................",
".......................baffaaaaaccaacafaaafafaaaaaaaaaa.........................",
".......................aaaaaaacccccccafaaaaaaaaaaaaaaaab........................",
".......................aaffaacccgggccaafaaaaaaafaafaaaaa........................",
"......................aaaffaacggggggccfaaaaafaaaaaaaaaaa........................",
"......................afafaacggggggggcffffffaaaaaaaaaaaaa.......................",
"......................aafaaacgggggcggc..baafaaaaafaaaaaaa.......................",
".....................faafffaccgggggge.....affaaaaafaaaaaa.......................",
".....................ffaaffacccgggg........bafafaaffaaaaaa......................",
".....................aaaaaaaacggge...........aafaaaaaaaaaa......................",
"....................faafaaaffccgg.............fafffaaaaaaa......................",
"....................ffffffaffaa................ffaaaafaaaaf.....................",
"....................ffafffaaab...................aaafffaaaf.....................",
"...................ffaacfaff......................bfafaffaa.....................",
"...................cfafaaaf........................bffaaafaf....................",
"...................ffafffb...........................faafaaf....................",
"..................iffaff..............................bffaaa....................",
"..................cafaf.................................faafb...................",
"..................ccab...................................aaaf...................",
".................bff......................................bfa...................",
".................ff.........................................ab..................",
".............................................................b..................",
"................................................................................",
"................................................................................",
"................................................................................",
"................................................................................",
"................................................................................",
"................................................................................",
"................................................................................",
"................................................................................",
"................................................................................"};
