/* XPM */
static char *dummy[]={
"80 80 2 1",
". c #0000ff",
"# c #ff0000",
"................................................................................",
"................................................................................",
"................................................................................",
"................................................................................",
"................................................................................",
"................................................................................",
"................................................................................",
"................................................................................",
"................................................................................",
"................................................................................",
"..................#############################################.................",
"..................#############################################.................",
"..................#############################################.................",
"..................#############################################.................",
"..................#############################################.................",
"..................#############################################.................",
"..................#############################################.................",
"..................#############################################.................",
"..................#############################################.................",
"..................#############################################.................",
"..................#############################################.................",
"..................#############.................................................",
"..................############..................................................",
"..................############..................................................",
"..................############..................................................",
"..................############..................................................",
"..................############..................................................",
"..................############..................................................",
"..................############..................................................",
"..................############..................................................",
"..................############..................................................",
"..................############..................................................",
"..................############..................................................",
"..................#############.................................................",
"..................##########################################....................",
"..................##########################################....................",
"..................##########################################....................",
"..................##########################################....................",
"..................##########################################....................",
"..................##########################################....................",
"..................##########################################....................",
"..................##########################################....................",
"..................##########################################....................",
"..................##########################################....................",
"..................##########################################....................",
"..................############..................................................",
"..................############..................................................",
"..................############..................................................",
"..................############..................................................",
"..................############..................................................",
"..................############..................................................",
"..................############..................................................",
"..................############..................................................",
"..................############..................................................",
"..................############..................................................",
"..................############..................................................",
"..................############..................................................",
"..................############..................................................",
"..................############..................................................",
"..................############..................................................",
"..................##############################################................",
"..................###############################################...............",
"..................###############################################...............",
"..................###############################################...............",
"..................###############################################...............",
"..................###############################################...............",
"..................###############################################...............",
"..................###############################################...............",
"..................###############################################...............",
"..................###############################################...............",
"..................###############################################...............",
"................................................................................",
"................................................................................",
"................................................................................",
"................................................................................",
"................................................................................",
"................................................................................",
"................................................................................",
"................................................................................",
"................................................................................"};
