/* XPM */
static char *dummy[]={
"80 80 5 1",
". c #009900",
"# c #333333",
"a c #666666",
"c c #999966",
"b c #999999",
"................................................................................",
"................................................................................",
"................................................................................",
"................................................................................",
"................................................................................",
".......................................#........................................",
"......................................###.......................................",
"......................................###.......................................",
".....................................#####......................................",
"....................................#######.....................................",
"....................................#######.....................................",
"...................................#########....................................",
"..................................###########...................................",
".................................############...................................",
".................................#############..................................",
"................................###############.................................",
"...............................################.................................",
"..............................##################................................",
".............................####################...............................",
"............................######################..............................",
"...........................########################.............................",
".........................###########################............................",
"........................#############################...........................",
".......................###############################..........................",
".....................###################################........................",
".............................############################.......................",
"..............................############################......................",
"..............................####################.#####........................",
".............................#####################..............................",
".............................#####################..............................",
"............................#######################.............................",
"............................#######################.............................",
"...........................#########################............................",
"...........................#########################............................",
"..........................##########################............................",
".........................############################...........................",
".........................############################...........................",
"........................#############################...........................",
".......................###############################..........................",
"......................################################..........................",
".....................##################################.........................",
"....................###################################.........................",
"...................#####################################........................",
"..................######################################........................",
"................#########################################.......................",
"..................########################################......................",
"..........................#################################.....................",
".............................#######################..######....................",
"............................########################............................",
"............................#########################...........................",
"...........................###########################..........................",
"..........................############################..........................",
"..........................#############################.........................",
".........................##############################.........................",
".........................###############################........................",
"........................################################........................",
".......................##################################.......................",
".......................###################################......................",
"......................####################################......................",
"....................#######################################.....................",
".................###########################################....................",
"...............##################....#aaaaaa#..##############...................",
"..................#########..........abbbbbba......############.................",
".....................................abbbbbba..........#########................",
".....................................abbbbbba...................................",
".....................................abbbbbba...................................",
".....................................abbbbbba...................................",
".....................................#bbbbbba...................................",
"......................................bbbbbba...................................",
"......................................bbbbbba...................................",
"......................................abbbbba...................................",
"......................................abbbbbc#..................................",
"......................................abbbbbb#..................................",
"......................................abbbbbb#..................................",
"......................................abbbbbb#..................................",
"......................................abbbbbb#..................................",
"................................................................................",
"................................................................................",
"................................................................................",
"................................................................................"};
